<?xml version="1.0" standalone="no"?>
<!DOCTYPE svg PUBLIC "-//W3C//DTD SVG 20010904//EN"
 "http://www.w3.org/TR/2001/REC-SVG-20010904/DTD/svg10.dtd">
<svg version="1.0" xmlns="http://www.w3.org/2000/svg"
 width="512.000000pt" height="512.000000pt" viewBox="0 0 512.000000 512.000000"
 preserveAspectRatio="xMidYMid meet">

<g transform="translate(0.000000,512.000000) scale(0.100000,-0.100000)"
fill="#000000" stroke="none">
<path d="M977 4142 c-10 -10 -17 -27 -17 -38 0 -12 286 -305 762 -781 l763
-763 -763 -763 c-521 -521 -762 -769 -762 -783 0 -25 30 -54 56 -54 12 0 305
286 781 762 l763 763 763 -763 c521 -521 769 -762 783 -762 25 0 54 30 54 56
0 12 -286 305 -762 781 l-763 763 763 763 c521 521 762 769 762 783 0 25 -30
54 -56 54 -12 0 -305 -286 -781 -762 l-763 -763 -763 763 c-521 521 -769 762
-783 762 -12 0 -28 -8 -37 -18z"/>
</g>
</svg>
