<?xml version="1.0" standalone="no"?>
<!DOCTYPE svg PUBLIC "-//W3C//DTD SVG 20010904//EN"
 "http://www.w3.org/TR/2001/REC-SVG-20010904/DTD/svg10.dtd">
<svg version="1.0" xmlns="http://www.w3.org/2000/svg"
 width="512.000000pt" height="512.000000pt" viewBox="0 0 512.000000 512.000000"
 preserveAspectRatio="xMidYMid meet">

<g transform="translate(0.000000,512.000000) scale(0.100000,-0.100000)"
fill="#000000" stroke="none">
<path d="M1610 5109 c-943 -107 -1649 -928 -1607 -1869 36 -785 559 -1448
1312 -1663 162 -47 313 -67 492 -67 406 1 771 122 1087 362 l79 60 951 -950
c523 -522 965 -957 983 -966 122 -61 258 75 197 197 -9 18 -444 460 -966 983
l-950 951 59 79 c242 321 362 681 363 1088 0 437 -147 837 -432 1173 -382 450
-982 688 -1568 622z m486 -318 c202 -42 374 -113 549 -228 126 -83 326 -281
407 -403 109 -164 192 -361 233 -550 22 -102 31 -383 16 -491 -83 -583 -479
-1058 -1032 -1239 -166 -55 -307 -73 -509 -67 -191 6 -266 19 -429 73 -235 78
-430 202 -611 390 -198 205 -329 456 -392 748 -29 135 -31 414 -5 555 102 542
475 974 1000 1160 77 27 235 62 337 75 84 10 338 -3 436 -23z"/>
</g>
</svg>
